<?xml version="1.0" encoding="UTF-8"?>
<!DOCTYPE svg PUBLIC "-//W3C//DTD SVG 1.1//EN" "http://www.w3.org/Graphics/SVG/1.1/DTD/svg11.dtd">
<svg version="1.1" id="Layer_1" xmlns="http://www.w3.org/2000/svg" xmlns:xlink="http://www.w3.org/1999/xlink" x="0px" y="0px" width="32px" height="32px" viewBox="0 0 32 32" enable-background="new 0 0 32 32" xml:space="preserve">
  <g id="main">
    <clipPath id="clip_mask">
      <path d="M32,0v32H3.297l2.866,-2.843c0.913,0.434,1.914,0.661,2.935,0.661c0,0,0,0,0,0c1.838,0,3.566,-0.721,4.866,-2.029c2.678,-2.695,2.682,-7.076,0.008,-9.767C12.678,16.718,10.955,16,9.12,16c-1.839,0,-3.568,0.721,-4.869,2.03c-1.108,1.115,-1.81,2.591,-1.975,4.154c-0.134,1.268,0.086,2.554,0.624,3.696L0,28.757V0H32z" fill-rule="evenodd"/>
    </clipPath>
    <g id="icon" clip-path="url(#clip_mask)">
      <g id="transformed_icon" transform="translate(1 0)">
        <path d="M30,30.5H2c-0.276,0,-0.5,-0.224,-0.5,-0.5V7.5h29v22.5C30.5,30.276,30.276,30.5,30,30.5z" fill="none" stroke="#2D85A0" stroke-width="1" stroke-miterlimit="1"/>
        <path d="M31,8H1V3.4c0,-0.773,0.627,-1.4,1.4,-1.4h27.2c0.773,0,1.4,0.627,1.4,1.4V8z" fill="#2D85A0"/>
        <polyline points="5,19.3 9.092,19.3 11.183,14.834 13.444,26.34 18.196,11.84 21.368,22.774 23.118,19.3 27,19.3" fill-rule="evenodd" fill="none" stroke="#2D85A0" stroke-width="1.4" stroke-linecap="round" stroke-miterlimit="1" stroke-linejoin="round"/>
      </g>
    </g>
    <g id="overlay">
      <path d="M13.265,18.727c-2.291,-2.306,-6.009,-2.302,-8.304,0.008c-1.979,1.991,-2.253,5.046,-0.824,7.327L0.192,29.975c-0.255,0.257,-0.255,0.674,0,0.931l0.925,0.931c0.255,0.257,0.67,0.257,0.925,0l3.947,-3.915c2.266,1.428,5.293,1.149,7.267,-0.838C15.552,24.774,15.556,21.032,13.265,18.727zM11.823,25.675c-1.513,1.523,-3.966,1.523,-5.479,0c-1.513,-1.523,-1.513,-3.991,0,-5.514c1.513,-1.523,3.966,-1.523,5.479,0C13.336,21.684,13.336,24.152,11.823,25.675z" fill-rule="evenodd" fill="#E9573E"/>
    </g>
  </g>
</svg>
